<svg xmlns="http://www.w3.org/2000/svg" xmlns:xlink="http://www.w3.org/1999/xlink" width="427.73px" height="599.62px" viewBox="0 0 427.73 599.62"><defs><style>.cls-1{fill:url(#Безымянный_градиент_48);}.cls-2{fill:#f3f3fb;}.cls-3{fill:#f6f6fe;}.cls-4{fill:#dfe0fa;}.cls-5{fill:url(#Безымянный_градиент_32);}.cls-6{fill:#0d0d86;}.cls-7{fill:#ff080a;}.cls-8{fill:url(#Безымянный_градиент_48-2);}.cls-9{fill:#ff7002;}.cls-10{fill:#6f7ec9;}.cls-11{fill:#ff5c98;}.cls-12{fill:#fff;}.cls-13{fill:url(#Безымянный_градиент_5);}.cls-14{fill:url(#Безымянный_градиент_5-2);}.cls-15,.cls-17{fill:none;}.cls-15{stroke:#6c6fda;stroke-linecap:round;stroke-linejoin:round;stroke-width:3px;}.cls-16{fill:url(#Безымянный_градиент_5-3);}.cls-17{stroke:#fff;stroke-miterlimit:10;stroke-width:4px;}</style><linearGradient id="Безымянный_градиент_48" x1="165.32" y1="419.38" x2="354.08" y2="419.38" gradientUnits="userSpaceOnUse"><stop offset="0" stop-color="#0d0d86" stop-opacity="0.5"/><stop offset="1" stop-color="#0d0d86" stop-opacity="0"/></linearGradient><linearGradient id="Безымянный_градиент_32" y1="225.96" x2="355.8" y2="225.96" gradientUnits="userSpaceOnUse"><stop offset="0" stop-color="#f3f3fb"/><stop offset="0.57" stop-color="#eaeafb"/><stop offset="1" stop-color="#dfe0fa"/></linearGradient><linearGradient id="Безымянный_градиент_48-2" x1="13.36" y1="513" x2="125.26" y2="513" xlink:href="#Безымянный_градиент_48"/><linearGradient id="Безымянный_градиент_5" x1="381.29" y1="412.88" x2="128.84" y2="160.43" gradientTransform="matrix(-1, 0, 0, 1, 581.09, 0)" gradientUnits="userSpaceOnUse"><stop offset="0" stop-color="#ff7002"/><stop offset="1" stop-color="#ff080a"/></linearGradient><linearGradient id="Безымянный_градиент_5-2" x1="381.29" y1="412.88" x2="128.84" y2="160.43" xlink:href="#Безымянный_градиент_5"/><linearGradient id="Безымянный_градиент_5-3" x1="430.55" y1="258.78" x2="496.98" y2="258.78" gradientTransform="matrix(0.87, -0.5, 0, 1.15, -10.67, -4.93)" xlink:href="#Безымянный_градиент_5"/></defs><g id="Слой_2" data-name="Слой 2"><g id="Слой_1-2" data-name="Слой 1"><polygon class="cls-1" points="224.23 473.9 165.32 473.72 295.18 364.86 354.08 398.93 224.23 473.9"/><polygon class="cls-2" points="165.25 462.8 109.24 430.26 109.27 441.05 165.28 473.6 165.25 462.8"/><polygon class="cls-3" points="291.98 389.64 235.97 357.09 109.24 430.26 165.25 462.8 291.98 389.64"/><polygon class="cls-4" points="165.25 462.8 165.28 473.6 292.01 400.43 291.98 389.64 165.25 462.8"/><polygon class="cls-2" points="164.66 340.44 144.57 328.77 144.8 410.88 164.89 422.56 164.66 340.44"/><polygon class="cls-4" points="164.66 340.44 164.89 422.56 226.46 387.01 226.23 304.9 164.66 340.44"/><path class="cls-5" d="M5.4,193.65,339.52.75a3.81,3.81,0,0,1,3.87-.38L355.8,7.58a3.84,3.84,0,0,0-3.86.38L17.82,200.87a11.88,11.88,0,0,0-5.4,9.34l.67,238.24a3.78,3.78,0,0,0,1.58,3.46L2.25,444.7a3.79,3.79,0,0,1-1.57-3.47L0,203A11.9,11.9,0,0,1,5.4,193.65Z"/><path class="cls-4" d="M17.82,200.87a11.88,11.88,0,0,0-5.4,9.34l.67,238.24c0,3.43,2.45,4.81,5.44,3.08l334.12-192.9a11.91,11.91,0,0,0,5.41-9.35l-.68-238.23c0-3.44-2.45-4.82-5.44-3.09Z"/><path class="cls-6" d="M22.37,213.11l.57,203.19c0,2.18,1.55,3.06,3.47,2L232.12,299.49l112.55-65a7.45,7.45,0,0,0,3.43-5.95l-.56-203.18c0-2.2-1.55-3.08-3.47-2L58.88,188.05l-33.07,19.1A7.55,7.55,0,0,0,22.37,213.11Z"/><path class="cls-7" d="M13.35,508.72l0,9.17c0-8.35,5.49-16.71,16.52-23.08,21.93-12.66,57.34-12.66,79.12,0,10.82,6.29,16.24,14.52,16.26,22.76l0-9.17c0-8.25-5.44-16.48-16.27-22.77C87.2,473,51.79,473,29.87,485.63,18.83,492,13.32,500.37,13.35,508.72Z"/><path class="cls-7" d="M135.46,517.53l0-9.18c0,8.85-5.21,17.72-15.69,24.89l0,9.17C130.25,535.24,135.48,526.38,135.46,517.53Z"/><path class="cls-7" d="M3.15,508.74l0,9.18c0,9.74,6.43,19.47,19.22,26.9C46.8,559,85.71,559.73,111.77,547l0-9.18c-26.07,12.7-65,12-89.39-2.21C9.58,528.21,3.18,518.49,3.15,508.74Z"/><polygon class="cls-7" points="111.75 537.85 111.77 547.03 142.6 564.94 142.57 555.76 111.75 537.85"/><path class="cls-8" d="M29.88,490.08c-21.92,12.66-22,33.18-.27,45.84s57.22,12.65,79.14,0,22-33.19.26-45.84S51.8,477.43,29.88,490.08Z"/><path class="cls-3" d="M73.14,492.25c-4.82,2.79-4.85,7.3-.06,10.08s12.59,2.79,17.41,0,4.85-7.3.06-10.08S78,489.47,73.14,492.25Z"/><path class="cls-3" d="M57.19,491c-1.91,1.1-1.92,2.88,0,4A7.58,7.58,0,0,0,64,495c1.91-1.1,1.92-2.88,0-4A7.56,7.56,0,0,0,57.19,491Z"/><path class="cls-9" d="M116.22,481.46c24.41,14.18,25.53,36.72,3.52,51.78l30.82,17.91-8,4.61-30.82-17.91c-26.07,12.7-65,12-89.39-2.21-25.74-15-25.6-39.22.32-54.18S90.48,466.5,116.22,481.46Zm-7.48,50c21.92-12.66,22-33.18.24-45.84s-57.19-12.65-79.11,0-22,33.18-.27,45.84,57.22,12.65,79.14,0"/><polygon class="cls-6" points="135.46 555.87 135.48 565.04 194.99 599.62 194.96 590.45 135.46 555.87"/><polygon class="cls-6" points="194.96 590.45 194.99 599.62 210.65 590.58 210.62 581.41 194.96 590.45"/><polygon class="cls-10" points="135.46 555.87 194.96 590.45 210.62 581.41 151.11 546.83 135.46 555.87"/><path class="cls-7" d="M284.89,220.93c21.6-12.47,41.17-13.63,55.3-5.42l10.95,6.36c-14.13-8.21-33.7-7.05-55.3,5.42-42.91,24.77-77.59,84.84-77.45,134.17.07,24.49,8.72,41.73,22.67,49.83l-10.95-6.36c-14-8.11-22.6-25.34-22.67-49.83C207.3,305.77,242,245.7,284.89,220.93Z"/><path class="cls-11" d="M295.84,227.29c-42.91,24.78-77.59,84.84-77.45,134.17s35.05,69.2,77.95,44.42S374,321,373.81,271.73,338.76,202.51,295.84,227.29Z"/><path class="cls-12" d="M351.77,284.46c.1,35.26-24.79,78.37-55.48,96.09s-55.76,3.45-55.86-31.81,24.79-78.4,55.5-96.13S351.67,249.17,351.77,284.46Zm-55.55,70.77c18.53-10.7,33.57-36.76,33.51-58.05s-15.2-29.94-33.73-19.25S262.41,314.7,262.47,336s15.2,29.92,33.75,19.21"/><path class="cls-13" d="M373.81,271.73C374,321,339.27,381.1,296.36,405.88s-77.83,4.89-78-44.42,34.54-109.39,77.47-134.17S373.67,222.41,373.81,271.73ZM296.29,380.55c30.69-17.72,55.58-60.83,55.48-96.09s-25.15-49.57-55.84-31.85-55.6,60.84-55.5,96.13,25.15,49.54,55.86,31.81"/><path class="cls-6" d="M296.07,303.26c-6.38,3.69-11.56,12.68-11.54,20s5.23,10.31,11.62,6.62,11.57-12.66,11.55-20S302.46,299.57,296.07,303.26Z"/><path class="cls-14" d="M329.73,297.18c.06,21.29-15,47.35-33.51,58.05S262.53,357.3,262.47,336s15-47.38,33.53-58.09S329.67,275.87,329.73,297.18ZM296.15,329.9c6.39-3.68,11.57-12.66,11.55-20s-5.24-10.33-11.63-6.64-11.56,12.68-11.54,20,5.23,10.31,11.62,6.62"/><polygon class="cls-10" points="405.11 362.25 413.95 386.37 381.4 374.31 374.93 350.74 405.11 362.25"/><polygon class="cls-10" points="404.99 361.02 427.73 349.09 395.52 336.16 374.9 349.27 404.99 361.02"/><line class="cls-15" x1="295.32" y1="317.35" x2="417.56" y2="366.04"/><polygon class="cls-3" points="417.56 69 64.86 272.62 64.86 227.92 417.56 24.3 417.56 69"/><polygon class="cls-16" points="419.72 67.74 362.19 100.96 362.19 56.26 419.72 23.05 419.72 67.74"/><ellipse class="cls-17" cx="389.24" cy="60.44" rx="16.14" ry="9.32" transform="translate(142.28 367.31) rotate(-60)"/><line class="cls-17" x1="397.48" y1="65.68" x2="405.73" y2="70.44"/></g></g></svg>
