<svg xmlns="http://www.w3.org/2000/svg" width="49" height="49" viewBox="0 0 49 49">
    <g fill="none">
        <path fill="#2A2D34" d="M26.006 11c-.135 0-.27 0-.405.006-6.087.2-11.397 5.508-11.595 11.596-.106 3.318 1.165 6.532 3.512 8.88 2.348 2.347 5.563 3.618 8.88 3.512 6.088-.2 11.398-5.508 11.596-11.596.104-3.248-1.112-6.4-3.37-8.735-2.26-2.337-5.368-3.658-8.618-3.663zm7.264 19.27c-1.933 1.928-4.552 3.012-7.283 3.014-.155 0-.312 0-.469-.01-4.862-.223-8.903-3.82-9.688-8.623-.785-4.804 1.9-9.5 6.439-11.26 4.538-1.758 9.688-.1 12.346 3.978 2.657 4.077 2.096 9.459-1.345 12.9z"/>
        <path fill="#7927E0" d="M40.798 10.989c1.876-.168 3.286-1.778 3.198-3.651C43.908 5.465 42.353 3.993 40.47 4c-.106 0-.212.005-.318.014-1.916.2-3.314 1.896-3.137 3.805.177 1.91 1.863 3.322 3.783 3.17zm-1.66-4.818c.606-.604 1.543-.728 2.286-.302.742.427 1.104 1.296.881 2.12-.222.824-.973 1.396-1.83 1.395-.082 0-.163-.006-.245-.016-.713-.094-1.311-.583-1.543-1.261-.231-.678-.056-1.429.452-1.936z"/>
        <path fill="#2A2D34" d="M13.09 5.878C19.469 1.198 27.993.332 35.23 3.631L36 2.161C28.182-1.424 18.96-.498 12.064 4.564 8.297 7.345 5.485 11.17 4 15.532L5.63 16c1.38-4.026 3.98-7.554 7.46-10.122zM46.278 13l-1.426.848c2.931 5.583 3.303 12.21 1.016 18.101C43.582 37.84 38.87 42.391 33 44.38L33.47 46c4.362-1.479 8.185-4.279 10.966-8.03 5.332-7.234 6.052-16.996 1.842-24.97zM5.594 30L4 30.473C6.258 37.349 11.65 42.742 18.527 45L19 43.407C12.662 41.31 7.69 36.337 5.594 30z"/>
        <path fill="#7927E0" d="M26.501 42c-.104 0-.21.005-.315.014-1.894.17-3.306 1.823-3.178 3.721.128 1.898 1.748 3.347 3.649 3.261 1.9-.085 3.384-1.672 3.342-3.574C29.957 43.52 28.403 42 26.501 42zm1.33 4.82c-.35.353-.826.55-1.323.55-.082 0-.163-.004-.244-.014-.866-.111-1.542-.805-1.63-1.674-.087-.87.436-1.684 1.262-1.967.827-.282 1.739.043 2.201.784.462.741.352 1.703-.265 2.321zM3.829 25.985c1.861-.178 3.255-1.784 3.167-3.648C6.91 20.472 5.371 19.004 3.501 19c-.105 0-.21 0-.316.013-1.928.177-3.348 1.882-3.17 3.807.177 1.925 1.885 3.342 3.813 3.165zm-.566-1.62c-1.013-.129-1.741-1.037-1.645-2.052.095-1.016.981-1.772 2-1.709 1.02.063 1.805.922 1.775 1.942-.03 1.019-.864 1.83-1.886 1.834-.081 0-.163-.005-.244-.015z"/>
    </g>
</svg>
